<svg xmlns="http://www.w3.org/2000/svg" width="1920" height="1080"><path d="M392,1299L-155,1298L749,1311Z" fill="#003950" stroke="#003950" stroke-width="1.51"/><path d="M394,-264L768,-239L1181,-253Z" fill="#00425b" stroke="#00425b" stroke-width="1.51"/><path d="M749,1311L-155,1298L1208,1334Z" fill="#00405a" stroke="#00405a" stroke-width="1.51"/><path d="M931,1317L749,1311L1208,1334Z" fill="#00425d" stroke="#00425d" stroke-width="1.51"/><path d="M1363,1322L1208,1334L1808,1337Z" fill="#00374e" stroke="#00374e" stroke-width="1.51"/><path d="M1962,1273L1808,1337L2032,1284Z" fill="#002f42" stroke="#002f42" stroke-width="1.51"/><path d="M2067,817L2072,938L2106,655Z" fill="#003a52" stroke="#003a52" stroke-width="1.51"/><path d="M2106,655L2072,938L2121,1110Z" fill="#00374d" stroke="#00374d" stroke-width="1.51"/><path d="M1958,-38L2120,117L2127,-97Z" fill="#00364b" stroke="#00364b" stroke-width="1.51"/><path d="M1899,278L2085,357L2133,194Z" fill="#00415a" stroke="#00415a" stroke-width="1.51"/><path d="M2127,-97L2120,117L2133,194Z" fill="#00374d" stroke="#00374d" stroke-width="1.51"/><path d="M1988,541L2106,655L2135,515Z" fill="#00425c" stroke="#00425c" stroke-width="1.51"/><path d="M2085,357L1988,541L2135,515Z" fill="#004560" stroke="#004560" stroke-width="1.51"/><path d="M2133,194L2085,357L2135,515Z" fill="#00435c" stroke="#00435c" stroke-width="1.51"/><path d="M2106,655L2121,1110L2135,515Z" fill="#003b52" stroke="#003b52" stroke-width="1.51"/><path d="M394,-264L1181,-253L2138,-244Z" fill="#00384f" stroke="#00384f" stroke-width="1.51"/><path d="M1181,-253L1390,-250L2138,-244Z" fill="#003246" stroke="#003246" stroke-width="1.51"/><path d="M1390,-250L1788,-232L2138,-244Z" fill="#002f41" stroke="#002f41" stroke-width="1.51"/><path d="M1788,-232L1982,-159L2138,-244Z" fill="#002d3e" stroke="#002d3e" stroke-width="1.51"/><path d="M1982,-159L2127,-97L2138,-244Z" fill="#002d3f" stroke="#002d3f" stroke-width="1.51"/><path d="M2127,-97L2133,194L2138,-244Z" fill="#003347" stroke="#003347" stroke-width="1.51"/><path d="M2133,194L2135,515L2138,-244Z" fill="#003a50" stroke="#003a50" stroke-width="1.51"/><path d="M1902,1142L2032,1284L2121,1110Z" fill="#003145" stroke="#003145" stroke-width="1.51"/><path d="M2072,938L1900,977L2121,1110Z" fill="#00354b" stroke="#00354b" stroke-width="1.51"/><path d="M1914,144L1899,278L2133,194Z" fill="#003f57" stroke="#003f57" stroke-width="1.51"/><path d="M1939,745L2067,817L2106,655Z" fill="#003d56" stroke="#003d56" stroke-width="1.51"/><path d="M2120,117L1914,144L2133,194Z" fill="#003b53" stroke="#003b53" stroke-width="1.51"/><path d="M1902,1142L1962,1273L2032,1284Z" fill="#003145" stroke="#003145" stroke-width="1.51"/><path d="M1958,-38L1914,144L2120,117Z" fill="#003a50" stroke="#003a50" stroke-width="1.51"/><path d="M1900,977L1902,1142L2121,1110Z" fill="#00354a" stroke="#00354a" stroke-width="1.51"/><path d="M1982,-159L1958,-38L2127,-97Z" fill="#003246" stroke="#003246" stroke-width="1.51"/><path d="M1897,405L1988,541L2085,357Z" fill="#004864" stroke="#004864" stroke-width="1.51"/><path d="M1988,541L1939,745L2106,655Z" fill="#00415b" stroke="#00415b" stroke-width="1.51"/><path d="M1939,745L1972,818L2067,817Z" fill="#003d55" stroke="#003d55" stroke-width="1.51"/><path d="M2067,817L1972,818L2072,938Z" fill="#003951" stroke="#003951" stroke-width="1.51"/><path d="M1899,278L1897,405L2085,357Z" fill="#004561" stroke="#004561" stroke-width="1.51"/><path d="M-170,-254L113,-239L394,-264Z" fill="#003043" stroke="#003043" stroke-width="1.51"/><path d="M1972,818L1900,977L2072,938Z" fill="#003950" stroke="#003950" stroke-width="1.51"/><path d="M1900,977L1835,1032L1902,1142Z" fill="#00374e" stroke="#00374e" stroke-width="1.51"/><path d="M1783,-60L1958,-38L1982,-159Z" fill="#00354a" stroke="#00354a" stroke-width="1.51"/><path d="M1897,405L1765,516L1988,541Z" fill="#004865" stroke="#004865" stroke-width="1.51"/><path d="M1757,688L1939,745L1988,541Z" fill="#00435e" stroke="#00435e" stroke-width="1.51"/><path d="M1765,516L1757,688L1988,541Z" fill="#004763" stroke="#004763" stroke-width="1.51"/><path d="M1754,42L1914,144L1958,-38Z" fill="#003c53" stroke="#003c53" stroke-width="1.51"/><path d="M1758,877L1900,977L1972,818Z" fill="#003c54" stroke="#003c54" stroke-width="1.51"/><path d="M1788,-232L1783,-60L1982,-159Z" fill="#003347" stroke="#003347" stroke-width="1.51"/><path d="M1783,-60L1754,42L1958,-38Z" fill="#003a51" stroke="#003a51" stroke-width="1.51"/><path d="M1939,745L1758,877L1972,818Z" fill="#003e57" stroke="#003e57" stroke-width="1.51"/><path d="M1902,1142L1808,1337L1962,1273Z" fill="#003246" stroke="#003246" stroke-width="1.51"/><path d="M1835,1032L1822,1107L1902,1142Z" fill="#00374d" stroke="#00374d" stroke-width="1.51"/><path d="M1757,688L1758,877L1939,745Z" fill="#00415b" stroke="#00415b" stroke-width="1.51"/><path d="M1790,358L1897,405L1899,278Z" fill="#004863" stroke="#004863" stroke-width="1.51"/><path d="M1822,1107L1808,1337L1902,1142Z" fill="#003449" stroke="#003449" stroke-width="1.51"/><path d="M1770,267L1899,278L1914,144Z" fill="#00425d" stroke="#00425d" stroke-width="1.51"/><path d="M1754,42L1770,267L1914,144Z" fill="#004059" stroke="#004059" stroke-width="1.51"/><path d="M1754,42L1683,117L1770,267Z" fill="#00415b" stroke="#00415b" stroke-width="1.51"/><path d="M1690,1152L1808,1337L1822,1107Z" fill="#00364b" stroke="#00364b" stroke-width="1.51"/><path d="M1790,358L1765,516L1897,405Z" fill="#004c6a" stroke="#004c6a" stroke-width="1.51"/><path d="M1770,267L1790,358L1899,278Z" fill="#004762" stroke="#004762" stroke-width="1.51"/><path d="M1758,877L1835,1032L1900,977Z" fill="#003a52" stroke="#003a52" stroke-width="1.51"/><path d="M1446,1260L1363,1322L1652,1244Z" fill="#00384f" stroke="#00384f" stroke-width="1.51"/><path d="M1690,553L1757,688L1765,516Z" fill="#004965" stroke="#004965" stroke-width="1.51"/><path d="M1683,117L1687,233L1770,267Z" fill="#00445e" stroke="#00445e" stroke-width="1.51"/><path d="M1390,-250L1661,-162L1788,-232Z" fill="#003348" stroke="#003348" stroke-width="1.51"/><path d="M1661,-162L1783,-60L1788,-232Z" fill="#00354a" stroke="#00354a" stroke-width="1.51"/><path d="M1652,1244L1363,1322L1808,1337Z" fill="#00354b" stroke="#00354b" stroke-width="1.51"/><path d="M1690,1152L1652,1244L1808,1337Z" fill="#00354b" stroke="#00354b" stroke-width="1.51"/><path d="M1758,877L1636,967L1835,1032Z" fill="#003d55" stroke="#003d55" stroke-width="1.51"/><path d="M1690,1152L1822,1107L1835,1032Z" fill="#00384f" stroke="#00384f" stroke-width="1.51"/><path d="M1636,967L1690,1152L1835,1032Z" fill="#003a52" stroke="#003a52" stroke-width="1.51"/><path d="M1637,699L1608,828L1757,688Z" fill="#004460" stroke="#004460" stroke-width="1.51"/><path d="M1757,688L1608,828L1758,877Z" fill="#00425c" stroke="#00425c" stroke-width="1.51"/><path d="M1608,401L1765,516L1790,358Z" fill="#004e6c" stroke="#004e6c" stroke-width="1.51"/><path d="M1770,267L1687,233L1790,358Z" fill="#004763" stroke="#004763" stroke-width="1.51"/><path d="M1687,233L1608,401L1790,358Z" fill="#004a67" stroke="#004a67" stroke-width="1.51"/><path d="M1608,401L1690,553L1765,516Z" fill="#004c6a" stroke="#004c6a" stroke-width="1.51"/><path d="M1583,-44L1754,42L1783,-60Z" fill="#003c54" stroke="#003c54" stroke-width="1.51"/><path d="M1661,-162L1583,-44L1783,-60Z" fill="#003950" stroke="#003950" stroke-width="1.51"/><path d="M1390,-250L1498,-155L1661,-162Z" fill="#00374c" stroke="#00374c" stroke-width="1.51"/><path d="M1690,553L1637,699L1757,688Z" fill="#004764" stroke="#004764" stroke-width="1.51"/><path d="M1608,828L1636,967L1758,877Z" fill="#003f59" stroke="#003f59" stroke-width="1.51"/><path d="M1583,-44L1683,117L1754,42Z" fill="#003f57" stroke="#003f57" stroke-width="1.51"/><path d="M768,-239L884,-220L1181,-253Z" fill="#004059" stroke="#004059" stroke-width="1.51"/><path d="M1440,293L1608,401L1687,233Z" fill="#004b69" stroke="#004b69" stroke-width="1.51"/><path d="M1683,117L1437,71L1687,233Z" fill="#00435e" stroke="#00435e" stroke-width="1.51"/><path d="M1437,71L1440,293L1687,233Z" fill="#004763" stroke="#004763" stroke-width="1.51"/><path d="M1536,504L1637,699L1690,553Z" fill="#004b68" stroke="#004b68" stroke-width="1.51"/><path d="M1608,401L1536,504L1690,553Z" fill="#004e6d" stroke="#004e6d" stroke-width="1.51"/><path d="M1436,1147L1652,1244L1690,1152Z" fill="#003950" stroke="#003950" stroke-width="1.51"/><path d="M1537,1012L1436,1147L1690,1152Z" fill="#003c54" stroke="#003c54" stroke-width="1.51"/><path d="M1636,967L1537,1012L1690,1152Z" fill="#003c55" stroke="#003c55" stroke-width="1.51"/><path d="M1440,293L1504,393L1608,401Z" fill="#004e6e" stroke="#004e6e" stroke-width="1.51"/><path d="M1536,504L1511,692L1637,699Z" fill="#004a68" stroke="#004a68" stroke-width="1.51"/><path d="M1583,-44L1437,71L1683,117Z" fill="#00415a" stroke="#00415a" stroke-width="1.51"/><path d="M1436,1147L1446,1260L1652,1244Z" fill="#003a51" stroke="#003a51" stroke-width="1.51"/><path d="M1498,-155L1583,-44L1661,-162Z" fill="#003950" stroke="#003950" stroke-width="1.51"/><path d="M1608,828L1537,1012L1636,967Z" fill="#004059" stroke="#004059" stroke-width="1.51"/><path d="M1511,692L1608,828L1637,699Z" fill="#004662" stroke="#004662" stroke-width="1.51"/><path d="M1435,850L1537,1012L1608,828Z" fill="#00425c" stroke="#00425c" stroke-width="1.51"/><path d="M1513,-57L1437,71L1583,-44Z" fill="#004059" stroke="#004059" stroke-width="1.51"/><path d="M1498,-155L1513,-57L1583,-44Z" fill="#003c54" stroke="#003c54" stroke-width="1.51"/><path d="M1504,393L1536,504L1608,401Z" fill="#005070" stroke="#005070" stroke-width="1.51"/><path d="M1511,692L1435,850L1608,828Z" fill="#004562" stroke="#004562" stroke-width="1.51"/><path d="M1384,638L1511,692L1536,504Z" fill="#004c6b" stroke="#004c6b" stroke-width="1.51"/><path d="M1504,393L1313,575L1536,504Z" fill="#005170" stroke="#005170" stroke-width="1.51"/><path d="M1313,575L1384,638L1536,504Z" fill="#004f6e" stroke="#004f6e" stroke-width="1.51"/><path d="M1348,1023L1436,1147L1537,1012Z" fill="#003f59" stroke="#003f59" stroke-width="1.51"/><path d="M1435,850L1348,1023L1537,1012Z" fill="#00425c" stroke="#00425c" stroke-width="1.51"/><path d="M1437,71L1353,96L1440,293Z" fill="#004864" stroke="#004864" stroke-width="1.51"/><path d="M1330,354L1313,575L1504,393Z" fill="#005475" stroke="#005475" stroke-width="1.51"/><path d="M1363,838L1435,850L1511,692Z" fill="#004763" stroke="#004763" stroke-width="1.51"/><path d="M1384,638L1363,838L1511,692Z" fill="#004a67" stroke="#004a67" stroke-width="1.51"/><path d="M1498,-155L1316,-56L1513,-57Z" fill="#003d56" stroke="#003d56" stroke-width="1.51"/><path d="M1316,-56L1437,71L1513,-57Z" fill="#00415b" stroke="#00415b" stroke-width="1.51"/><path d="M1353,96L1295,214L1440,293Z" fill="#004a68" stroke="#004a68" stroke-width="1.51"/><path d="M1440,293L1330,354L1504,393Z" fill="#00506f" stroke="#00506f" stroke-width="1.51"/><path d="M1390,-250L1316,-56L1498,-155Z" fill="#003b52" stroke="#003b52" stroke-width="1.51"/><path d="M1363,838L1348,1023L1435,850Z" fill="#004460" stroke="#004460" stroke-width="1.51"/><path d="M1348,1023L1359,1166L1436,1147Z" fill="#003f59" stroke="#003f59" stroke-width="1.51"/><path d="M1316,-56L1353,96L1437,71Z" fill="#004560" stroke="#004560" stroke-width="1.51"/><path d="M1436,1147L1359,1166L1446,1260Z" fill="#003c55" stroke="#003c55" stroke-width="1.51"/><path d="M1359,1166L1363,1322L1446,1260Z" fill="#003b53" stroke="#003b53" stroke-width="1.51"/><path d="M1295,214L1330,354L1440,293Z" fill="#004f6e" stroke="#004f6e" stroke-width="1.51"/><path d="M1198,365L1313,575L1330,354Z" fill="#005678" stroke="#005678" stroke-width="1.51"/><path d="M1239,869L1348,1023L1363,838Z" fill="#004662" stroke="#004662" stroke-width="1.51"/><path d="M1359,1166L1208,1334L1363,1322Z" fill="#003c54" stroke="#003c54" stroke-width="1.51"/><path d="M1208,693L1363,838L1384,638Z" fill="#004c6b" stroke="#004c6b" stroke-width="1.51"/><path d="M1226,-67L1316,-56L1390,-250Z" fill="#003f57" stroke="#003f57" stroke-width="1.51"/><path d="M1181,-253L1226,-67L1390,-250Z" fill="#003c53" stroke="#003c53" stroke-width="1.51"/><path d="M1348,1023L1229,1040L1359,1166Z" fill="#00425c" stroke="#00425c" stroke-width="1.51"/><path d="M1208,693L1239,869L1363,838Z" fill="#004a69" stroke="#004a69" stroke-width="1.51"/><path d="M1313,575L1208,693L1384,638Z" fill="#004f6f" stroke="#004f6f" stroke-width="1.51"/><path d="M1226,-67L1199,126L1316,-56Z" fill="#004662" stroke="#004662" stroke-width="1.51"/><path d="M1239,869L1229,1040L1348,1023Z" fill="#004561" stroke="#004561" stroke-width="1.51"/><path d="M1316,-56L1199,126L1353,96Z" fill="#004763" stroke="#004763" stroke-width="1.51"/><path d="M1152,1116L1208,1334L1359,1166Z" fill="#00405a" stroke="#00405a" stroke-width="1.51"/><path d="M1198,365L1140,548L1313,575Z" fill="#005678" stroke="#005678" stroke-width="1.51"/><path d="M1199,126L1295,214L1353,96Z" fill="#004a67" stroke="#004a67" stroke-width="1.51"/><path d="M1229,1040L1152,1116L1359,1166Z" fill="#00435e" stroke="#00435e" stroke-width="1.51"/><path d="M1295,214L1196,244L1330,354Z" fill="#00506f" stroke="#00506f" stroke-width="1.51"/><path d="M1196,244L1198,365L1330,354Z" fill="#005374" stroke="#005374" stroke-width="1.51"/><path d="M1140,548L1208,693L1313,575Z" fill="#005273" stroke="#005273" stroke-width="1.51"/><path d="M1199,126L1196,244L1295,214Z" fill="#004e6c" stroke="#004e6c" stroke-width="1.51"/><path d="M394,-264L623,-222L768,-239Z" fill="#003d54" stroke="#003d54" stroke-width="1.51"/><path d="M1082,494L1140,548L1198,365Z" fill="#00597b" stroke="#00597b" stroke-width="1.51"/><path d="M1065,433L1082,494L1198,365Z" fill="#005a7e" stroke="#005a7e" stroke-width="1.51"/><path d="M1013,-11L1009,47L1199,126Z" fill="#004c6a" stroke="#004c6a" stroke-width="1.51"/><path d="M1013,1274L931,1317L1208,1334Z" fill="#00405b" stroke="#00405b" stroke-width="1.51"/><path d="M1152,1116L1059,1171L1208,1334Z" fill="#00425d" stroke="#00425d" stroke-width="1.51"/><path d="M1181,-253L1064,-174L1226,-67Z" fill="#004058" stroke="#004058" stroke-width="1.51"/><path d="M1013,-11L1199,126L1226,-67Z" fill="#004966" stroke="#004966" stroke-width="1.51"/><path d="M1065,681L988,884L1239,869Z" fill="#004e6e" stroke="#004e6e" stroke-width="1.51"/><path d="M988,884L1040,939L1239,869Z" fill="#004c6a" stroke="#004c6a" stroke-width="1.51"/><path d="M1208,693L1065,681L1239,869Z" fill="#004f6e" stroke="#004f6e" stroke-width="1.51"/><path d="M1040,939L1229,1040L1239,869Z" fill="#004866" stroke="#004866" stroke-width="1.51"/><path d="M1059,1171L1013,1274L1208,1334Z" fill="#00425b" stroke="#00425b" stroke-width="1.51"/><path d="M1040,939L1152,1116L1229,1040Z" fill="#004763" stroke="#004763" stroke-width="1.51"/><path d="M1140,548L1065,681L1208,693Z" fill="#005374" stroke="#005374" stroke-width="1.51"/><path d="M1064,-174L1013,-11L1226,-67Z" fill="#004661" stroke="#004661" stroke-width="1.51"/><path d="M884,-220L1064,-174L1181,-253Z" fill="#003f58" stroke="#003f58" stroke-width="1.51"/><path d="M1196,244L1008,289L1198,365Z" fill="#005476" stroke="#005476" stroke-width="1.51"/><path d="M1008,289L1196,244L1199,126Z" fill="#005170" stroke="#005170" stroke-width="1.51"/><path d="M1008,289L1065,433L1198,365Z" fill="#00587b" stroke="#00587b" stroke-width="1.51"/><path d="M1009,47L1008,289L1199,126Z" fill="#00506e" stroke="#00506e" stroke-width="1.51"/><path d="M1040,939L1059,1171L1152,1116Z" fill="#004764" stroke="#004764" stroke-width="1.51"/><path d="M1082,494L1065,681L1140,548Z" fill="#005678" stroke="#005678" stroke-width="1.51"/><path d="M123,1261L-155,1298L392,1299Z" fill="#00354a" stroke="#00354a" stroke-width="1.51"/><path d="M900,238L1008,289L1009,47Z" fill="#005373" stroke="#005373" stroke-width="1.51"/><path d="M1040,939L910,1007L1059,1171Z" fill="#004a67" stroke="#004a67" stroke-width="1.51"/><path d="M910,1007L920,1145L1059,1171Z" fill="#004966" stroke="#004966" stroke-width="1.51"/><path d="M924,-86L1013,-11L1064,-174Z" fill="#004863" stroke="#004863" stroke-width="1.51"/><path d="M902,867L988,884L1065,681Z" fill="#005171" stroke="#005171" stroke-width="1.51"/><path d="M859,494L829,650L1065,681Z" fill="#00597c" stroke="#00597c" stroke-width="1.51"/><path d="M859,494L1065,681L1082,494Z" fill="#00597c" stroke="#00597c" stroke-width="1.51"/><path d="M1065,433L859,494L1082,494Z" fill="#005c7f" stroke="#005c7f" stroke-width="1.51"/><path d="M866,86L900,238L1009,47Z" fill="#005271" stroke="#005271" stroke-width="1.51"/><path d="M1008,289L870,436L1065,433Z" fill="#005c80" stroke="#005c80" stroke-width="1.51"/><path d="M870,436L859,494L1065,433Z" fill="#005e82" stroke="#005e82" stroke-width="1.51"/><path d="M829,650L902,867L1065,681Z" fill="#005576" stroke="#005576" stroke-width="1.51"/><path d="M884,-220L924,-86L1064,-174Z" fill="#00445f" stroke="#00445f" stroke-width="1.51"/><path d="M920,1145L1013,1274L1059,1171Z" fill="#004661" stroke="#004661" stroke-width="1.51"/><path d="M988,884L910,1007L1040,939Z" fill="#004d6b" stroke="#004d6b" stroke-width="1.51"/><path d="M900,238L870,436L1008,289Z" fill="#005a7d" stroke="#005a7d" stroke-width="1.51"/><path d="M866,86L1009,47L1013,-11Z" fill="#004e6c" stroke="#004e6c" stroke-width="1.51"/><path d="M924,-86L866,86L1013,-11Z" fill="#004d6b" stroke="#004d6b" stroke-width="1.51"/><path d="M920,1145L931,1317L1013,1274Z" fill="#004560" stroke="#004560" stroke-width="1.51"/><path d="M902,867L910,1007L988,884Z" fill="#004f6d" stroke="#004f6d" stroke-width="1.51"/><path d="M740,349L870,436L900,238Z" fill="#005d81" stroke="#005d81" stroke-width="1.51"/><path d="M829,650L765,708L902,867Z" fill="#005678" stroke="#005678" stroke-width="1.51"/><path d="M765,708L737,808L902,867Z" fill="#005577" stroke="#005577" stroke-width="1.51"/><path d="M910,1007L778,1118L920,1145Z" fill="#004b69" stroke="#004b69" stroke-width="1.51"/><path d="M778,1118L749,1311L920,1145Z" fill="#004966" stroke="#004966" stroke-width="1.51"/><path d="M790,66L866,86L924,-86Z" fill="#00506f" stroke="#00506f" stroke-width="1.51"/><path d="M746,-31L790,66L924,-86Z" fill="#004f6e" stroke="#004f6e" stroke-width="1.51"/><path d="M884,-220L746,-31L924,-86Z" fill="#004966" stroke="#004966" stroke-width="1.51"/><path d="M920,1145L749,1311L931,1317Z" fill="#004662" stroke="#004662" stroke-width="1.51"/><path d="M768,-239L746,-31L884,-220Z" fill="#004863" stroke="#004863" stroke-width="1.51"/><path d="M902,867L692,1041L910,1007Z" fill="#004f6e" stroke="#004f6e" stroke-width="1.51"/><path d="M764,568L829,650L859,494Z" fill="#005c80" stroke="#005c80" stroke-width="1.51"/><path d="M737,808L692,1041L902,867Z" fill="#005172" stroke="#005172" stroke-width="1.51"/><path d="M866,86L704,198L900,238Z" fill="#005577" stroke="#005577" stroke-width="1.51"/><path d="M692,1041L778,1118L910,1007Z" fill="#004e6c" stroke="#004e6c" stroke-width="1.51"/><path d="M627,1262L392,1299L749,1311Z" fill="#00405a" stroke="#00405a" stroke-width="1.51"/><path d="M790,66L704,198L866,86Z" fill="#005475" stroke="#005475" stroke-width="1.51"/><path d="M704,198L740,349L900,238Z" fill="#005a7d" stroke="#005a7d" stroke-width="1.51"/><path d="M740,349L859,494L870,436Z" fill="#006187" stroke="#006187" stroke-width="1.51"/><path d="M740,349L764,568L859,494Z" fill="#006086" stroke="#006086" stroke-width="1.51"/><path d="M638,-68L746,-31L768,-239Z" fill="#004964" stroke="#004964" stroke-width="1.51"/><path d="M764,568L765,708L829,650Z" fill="#005b7e" stroke="#005b7e" stroke-width="1.51"/><path d="M600,985L692,1041L737,808Z" fill="#004d6c" stroke="#004d6c" stroke-width="1.51"/><path d="M574,876L600,985L737,808Z" fill="#004d6c" stroke="#004d6c" stroke-width="1.51"/><path d="M740,349L607,406L764,568Z" fill="#005e83" stroke="#005e83" stroke-width="1.51"/><path d="M607,406L593,494L764,568Z" fill="#005b7f" stroke="#005b7f" stroke-width="1.51"/><path d="M623,-222L638,-68L768,-239Z" fill="#00435e" stroke="#00435e" stroke-width="1.51"/><path d="M627,1262L749,1311L778,1118Z" fill="#004663" stroke="#004663" stroke-width="1.51"/><path d="M631,1126L627,1262L778,1118Z" fill="#004863" stroke="#004863" stroke-width="1.51"/><path d="M746,-31L621,107L790,66Z" fill="#004f6f" stroke="#004f6f" stroke-width="1.51"/><path d="M621,107L704,198L790,66Z" fill="#005271" stroke="#005271" stroke-width="1.51"/><path d="M704,198L615,276L740,349Z" fill="#005779" stroke="#005779" stroke-width="1.51"/><path d="M764,568L562,651L765,708Z" fill="#00587a" stroke="#00587a" stroke-width="1.51"/><path d="M692,1041L631,1126L778,1118Z" fill="#004a67" stroke="#004a67" stroke-width="1.51"/><path d="M593,494L562,651L764,568Z" fill="#00587a" stroke="#00587a" stroke-width="1.51"/><path d="M562,651L737,808L765,708Z" fill="#005576" stroke="#005576" stroke-width="1.51"/><path d="M638,-68L621,107L746,-31Z" fill="#004c6a" stroke="#004c6a" stroke-width="1.51"/><path d="M562,651L574,876L737,808Z" fill="#005171" stroke="#005171" stroke-width="1.51"/><path d="M615,276L607,406L740,349Z" fill="#005a7d" stroke="#005a7d" stroke-width="1.51"/><path d="M621,107L615,276L704,198Z" fill="#005372" stroke="#005372" stroke-width="1.51"/><path d="M600,985L631,1126L692,1041Z" fill="#004966" stroke="#004966" stroke-width="1.51"/><path d="M562,651L421,801L574,876Z" fill="#004e6c" stroke="#004e6c" stroke-width="1.51"/><path d="M485,375L607,406L615,276Z" fill="#005779" stroke="#005779" stroke-width="1.51"/><path d="M437,250L615,276L621,107Z" fill="#00506f" stroke="#00506f" stroke-width="1.51"/><path d="M392,1101L392,1299L627,1262Z" fill="#003f58" stroke="#003f58" stroke-width="1.51"/><path d="M600,985L408,1033L631,1126Z" fill="#004662" stroke="#004662" stroke-width="1.51"/><path d="M392,1101L627,1262L631,1126Z" fill="#00445e" stroke="#00445e" stroke-width="1.51"/><path d="M623,-222L427,-42L638,-68Z" fill="#00445e" stroke="#00445e" stroke-width="1.51"/><path d="M427,-42L621,107L638,-68Z" fill="#004965" stroke="#004965" stroke-width="1.51"/><path d="M427,-42L391,76L621,107Z" fill="#004864" stroke="#004864" stroke-width="1.51"/><path d="M394,-264L427,-42L623,-222Z" fill="#003d55" stroke="#003d55" stroke-width="1.51"/><path d="M408,1033L392,1101L631,1126Z" fill="#00435e" stroke="#00435e" stroke-width="1.51"/><path d="M391,76L437,250L621,107Z" fill="#004b68" stroke="#004b68" stroke-width="1.51"/><path d="M425,578L562,651L593,494Z" fill="#005475" stroke="#005475" stroke-width="1.51"/><path d="M437,250L485,375L615,276Z" fill="#005373" stroke="#005373" stroke-width="1.51"/><path d="M485,375L593,494L607,406Z" fill="#005a7d" stroke="#005a7d" stroke-width="1.51"/><path d="M574,876L408,1033L600,985Z" fill="#004864" stroke="#004864" stroke-width="1.51"/><path d="M394,719L421,801L562,651Z" fill="#004e6c" stroke="#004e6c" stroke-width="1.51"/><path d="M485,375L425,578L593,494Z" fill="#005678" stroke="#005678" stroke-width="1.51"/><path d="M421,801L408,1033L574,876Z" fill="#004764" stroke="#004764" stroke-width="1.51"/><path d="M425,578L394,719L562,651Z" fill="#00506f" stroke="#00506f" stroke-width="1.51"/><path d="M243,1246L123,1261L392,1299Z" fill="#00394f" stroke="#00394f" stroke-width="1.51"/><path d="M310,984L408,1033L421,801Z" fill="#004560" stroke="#004560" stroke-width="1.51"/><path d="M394,-264L259,-194L427,-42Z" fill="#003b51" stroke="#003b51" stroke-width="1.51"/><path d="M391,76L331,195L437,250Z" fill="#004a66" stroke="#004a66" stroke-width="1.51"/><path d="M437,250L338,363L485,375Z" fill="#005271" stroke="#005271" stroke-width="1.51"/><path d="M338,363L425,578L485,375Z" fill="#005677" stroke="#005677" stroke-width="1.51"/><path d="M392,1101L243,1246L392,1299Z" fill="#003c54" stroke="#003c54" stroke-width="1.51"/><path d="M113,-239L259,-194L394,-264Z" fill="#003549" stroke="#003549" stroke-width="1.51"/><path d="M244,815L310,984L421,801Z" fill="#004560" stroke="#004560" stroke-width="1.51"/><path d="M338,363L263,554L425,578Z" fill="#005271" stroke="#005271" stroke-width="1.51"/><path d="M264,680L394,719L425,578Z" fill="#004d6b" stroke="#004d6b" stroke-width="1.51"/><path d="M259,-194L247,-49L427,-42Z" fill="#003e56" stroke="#003e56" stroke-width="1.51"/><path d="M331,195L338,363L437,250Z" fill="#004e6c" stroke="#004e6c" stroke-width="1.51"/><path d="M263,554L264,680L425,578Z" fill="#004e6d" stroke="#004e6d" stroke-width="1.51"/><path d="M247,-49L391,76L427,-42Z" fill="#00435d" stroke="#00435d" stroke-width="1.51"/><path d="M394,719L244,815L421,801Z" fill="#004966" stroke="#004966" stroke-width="1.51"/><path d="M244,1095L243,1246L392,1101Z" fill="#003d55" stroke="#003d55" stroke-width="1.51"/><path d="M310,984L392,1101L408,1033Z" fill="#00425b" stroke="#00425b" stroke-width="1.51"/><path d="M-1,1250L-155,1298L123,1261Z" fill="#003144" stroke="#003144" stroke-width="1.51"/><path d="M244,114L331,195L391,76Z" fill="#004762" stroke="#004762" stroke-width="1.51"/><path d="M247,-49L244,114L391,76Z" fill="#00435d" stroke="#00435d" stroke-width="1.51"/><path d="M310,984L244,1095L392,1101Z" fill="#004059" stroke="#004059" stroke-width="1.51"/><path d="M264,680L244,815L394,719Z" fill="#004966" stroke="#004966" stroke-width="1.51"/><path d="M83,360L263,554L338,363Z" fill="#005271" stroke="#005271" stroke-width="1.51"/><path d="M174,243L83,360L338,363Z" fill="#004c6a" stroke="#004c6a" stroke-width="1.51"/><path d="M331,195L174,243L338,363Z" fill="#004b68" stroke="#004b68" stroke-width="1.51"/><path d="M244,815L130,938L310,984Z" fill="#00425c" stroke="#00425c" stroke-width="1.51"/><path d="M244,114L174,243L331,195Z" fill="#004762" stroke="#004762" stroke-width="1.51"/><path d="M149,49L244,114L247,-49Z" fill="#00415a" stroke="#00415a" stroke-width="1.51"/><path d="M130,938L244,1095L310,984Z" fill="#003f58" stroke="#003f58" stroke-width="1.51"/><path d="M161,1132L243,1246L244,1095Z" fill="#003b52" stroke="#003b52" stroke-width="1.51"/><path d="M130,938L161,1132L244,1095Z" fill="#003d55" stroke="#003d55" stroke-width="1.51"/><path d="M122,-86L247,-49L259,-194Z" fill="#003b51" stroke="#003b51" stroke-width="1.51"/><path d="M83,360L98,584L263,554Z" fill="#004d6b" stroke="#004d6b" stroke-width="1.51"/><path d="M163,733L244,815L264,680Z" fill="#004763" stroke="#004763" stroke-width="1.51"/><path d="M263,554L98,584L264,680Z" fill="#004b69" stroke="#004b69" stroke-width="1.51"/><path d="M98,584L163,733L264,680Z" fill="#004865" stroke="#004865" stroke-width="1.51"/><path d="M113,-239L122,-86L259,-194Z" fill="#00364b" stroke="#00364b" stroke-width="1.51"/><path d="M161,1132L123,1261L243,1246Z" fill="#00384f" stroke="#00384f" stroke-width="1.51"/><path d="M149,49L174,243L244,114Z" fill="#00445e" stroke="#00445e" stroke-width="1.51"/><path d="M102,802L130,938L244,815Z" fill="#00425c" stroke="#00425c" stroke-width="1.51"/><path d="M122,-86L149,49L247,-49Z" fill="#003e56" stroke="#003e56" stroke-width="1.51"/><path d="M163,733L102,802L244,815Z" fill="#00445f" stroke="#00445f" stroke-width="1.51"/><path d="M-170,-254L-54,-207L113,-239Z" fill="#002c3c" stroke="#002c3c" stroke-width="1.51"/><path d="M83,360L-58,493L98,584Z" fill="#004a67" stroke="#004a67" stroke-width="1.51"/><path d="M130,938L6,1031L161,1132Z" fill="#003c53" stroke="#003c53" stroke-width="1.51"/><path d="M-33,194L83,360L174,243Z" fill="#004661" stroke="#004661" stroke-width="1.51"/><path d="M37,135L-33,194L174,243Z" fill="#00425c" stroke="#00425c" stroke-width="1.51"/><path d="M149,49L37,135L174,243Z" fill="#00435c" stroke="#00435c" stroke-width="1.51"/><path d="M-27,1157L-1,1250L123,1261Z" fill="#003348" stroke="#003348" stroke-width="1.51"/><path d="M-27,1157L123,1261L161,1132Z" fill="#00374d" stroke="#00374d" stroke-width="1.51"/><path d="M-10,787L102,802L163,733Z" fill="#00435d" stroke="#00435d" stroke-width="1.51"/><path d="M98,584L-10,787L163,733Z" fill="#004560" stroke="#004560" stroke-width="1.51"/><path d="M6,1031L-27,1157L161,1132Z" fill="#00374e" stroke="#00374e" stroke-width="1.51"/><path d="M-65,642L-10,787L98,584Z" fill="#00435d" stroke="#00435d" stroke-width="1.51"/><path d="M113,-239L-25,-96L122,-86Z" fill="#003549" stroke="#003549" stroke-width="1.51"/><path d="M122,-86L-25,-96L149,49Z" fill="#003b52" stroke="#003b52" stroke-width="1.51"/><path d="M-25,-96L37,135L149,49Z" fill="#003c53" stroke="#003c53" stroke-width="1.51"/><path d="M-54,-207L-25,-96L113,-239Z" fill="#003143" stroke="#003143" stroke-width="1.51"/><path d="M102,802L-10,787L130,938Z" fill="#004059" stroke="#004059" stroke-width="1.51"/><path d="M-10,787L6,1031L130,938Z" fill="#003c54" stroke="#003c54" stroke-width="1.51"/><path d="M-10,787L-114,951L6,1031Z" fill="#00394f" stroke="#00394f" stroke-width="1.51"/><path d="M-33,194L-61,360L83,360Z" fill="#00455f" stroke="#00455f" stroke-width="1.51"/><path d="M-25,-96L-134,44L37,135Z" fill="#00384e" stroke="#00384e" stroke-width="1.51"/><path d="M-61,360L-58,493L83,360Z" fill="#004965" stroke="#004965" stroke-width="1.51"/><path d="M-58,493L-65,642L98,584Z" fill="#004560" stroke="#004560" stroke-width="1.51"/><path d="M-134,44L-33,194L37,135Z" fill="#003c53" stroke="#003c53" stroke-width="1.51"/><path d="M-188,863L-114,951L-10,787Z" fill="#00384e" stroke="#00384e" stroke-width="1.51"/><path d="M-138,1124L-27,1157L6,1031Z" fill="#003348" stroke="#003348" stroke-width="1.51"/><path d="M-114,951L-138,1124L6,1031Z" fill="#003449" stroke="#003449" stroke-width="1.51"/><path d="M-161,207L-61,360L-33,194Z" fill="#003f57" stroke="#003f57" stroke-width="1.51"/><path d="M-27,1157L-155,1298L-1,1250Z" fill="#003042" stroke="#003042" stroke-width="1.51"/><path d="M-217,655L-188,863L-65,642Z" fill="#003a52" stroke="#003a52" stroke-width="1.51"/><path d="M-138,1124L-155,1298L-27,1157Z" fill="#002f42" stroke="#002f42" stroke-width="1.51"/><path d="M-189,-12L-134,44L-25,-96Z" fill="#003448" stroke="#003448" stroke-width="1.51"/><path d="M-65,642L-188,863L-10,787Z" fill="#003c54" stroke="#003c54" stroke-width="1.51"/><path d="M-134,44L-161,207L-33,194Z" fill="#003a50" stroke="#003a50" stroke-width="1.51"/><path d="M-54,-207L-189,-12L-25,-96Z" fill="#003144" stroke="#003144" stroke-width="1.51"/><path d="M-221,538L-65,642L-58,493Z" fill="#00415a" stroke="#00415a" stroke-width="1.51"/><path d="M-61,360L-206,399L-58,493Z" fill="#004660" stroke="#004660" stroke-width="1.51"/><path d="M-170,-254L-189,-12L-54,-207Z" fill="#002c3d" stroke="#002c3d" stroke-width="1.51"/><path d="M-221,538L-217,655L-65,642Z" fill="#003d56" stroke="#003d56" stroke-width="1.51"/><path d="M-161,207L-206,399L-61,360Z" fill="#004058" stroke="#004058" stroke-width="1.51"/><path d="M-206,399L-221,538L-58,493Z" fill="#00425b" stroke="#00425b" stroke-width="1.51"/><path d="M-188,863L-138,1124L-114,951Z" fill="#003348" stroke="#003348" stroke-width="1.51"/><path d="M-189,-12L-161,207L-134,44Z" fill="#00364a" stroke="#00364a" stroke-width="1.51"/><path d="M-188,863L-155,1298L-138,1124Z" fill="#003042" stroke="#003042" stroke-width="1.51"/><path d="M-188,863L-217,655L-155,1298Z" fill="#003347" stroke="#003347" stroke-width="1.51"/><path d="M-189,-12L-206,399L-161,207Z" fill="#00384e" stroke="#00384e" stroke-width="1.51"/><path d="M-221,538L-206,399L-189,-12Z" fill="#003d54" stroke="#003d54" stroke-width="1.51"/></svg>